<mxfile host="65bd71144e">
    <diagram id="BB-P8LQBv9p690ByxCHv" name="PÃ¡gina-1">
        <mxGraphModel dx="636" dy="407" grid="1" gridSize="3" guides="0" tooltips="1" connect="1" arrows="1" fold="1" page="1" pageScale="1" pageWidth="1169" pageHeight="827" background="#ffffff" math="1" shadow="1">
            <root>
                <mxCell id="0"/>
                <mxCell id="1" parent="0"/>
                <mxCell id="48" value="" style="edgeStyle=orthogonalEdgeStyle;html=1;elbow=vertical;entryX=0;entryY=0.5;entryDx=0;entryDy=0;rounded=0;" parent="1" source="_RkswcxPKLXW6ceY8JrJ-1" target="24" edge="1">
                    <mxGeometry relative="1" as="geometry"/>
                </mxCell>
                <mxCell id="_RkswcxPKLXW6ceY8JrJ-1" value="\(\dfrac{1}{s}\)" style="rounded=0;whiteSpace=wrap;html=1;" parent="1" vertex="1">
                    <mxGeometry x="580" y="267" width="30" height="45" as="geometry"/>
                </mxCell>
                <mxCell id="_RkswcxPKLXW6ceY8JrJ-5" value="" style="edgeStyle=orthogonalEdgeStyle;rounded=0;orthogonalLoop=1;jettySize=auto;html=1;startArrow=none;" parent="1" source="52" edge="1">
                    <mxGeometry relative="1" as="geometry">
                        <mxPoint x="579" y="291" as="targetPoint"/>
                    </mxGeometry>
                </mxCell>
                <mxCell id="_RkswcxPKLXW6ceY8JrJ-2" value="" style="shape=sumEllipse;perimeter=ellipsePerimeter;whiteSpace=wrap;html=1;backgroundOutline=1;rounded=0;" parent="1" vertex="1">
                    <mxGeometry x="397" y="282" width="20" height="20" as="geometry"/>
                </mxCell>
                <mxCell id="_RkswcxPKLXW6ceY8JrJ-7" style="edgeStyle=orthogonalEdgeStyle;rounded=0;orthogonalLoop=1;jettySize=auto;html=1;entryX=0.5;entryY=1;entryDx=0;entryDy=0;startArrow=none;" parent="1" source="38" target="_RkswcxPKLXW6ceY8JrJ-2" edge="1">
                    <mxGeometry relative="1" as="geometry">
                        <Array as="points">
                            <mxPoint x="407" y="336"/>
                            <mxPoint x="407" y="336"/>
                        </Array>
                    </mxGeometry>
                </mxCell>
                <mxCell id="40" value="" style="edgeStyle=none;html=1;rounded=0;" parent="1" source="_RkswcxPKLXW6ceY8JrJ-4" target="38" edge="1">
                    <mxGeometry relative="1" as="geometry"/>
                </mxCell>
                <mxCell id="_RkswcxPKLXW6ceY8JrJ-4" value="\(c\)" style="rounded=0;whiteSpace=wrap;html=1;" parent="1" vertex="1">
                    <mxGeometry x="477" y="351" width="39" height="30" as="geometry"/>
                </mxCell>
                <mxCell id="43" style="edgeStyle=orthogonalEdgeStyle;html=1;entryX=0.5;entryY=1;entryDx=0;entryDy=0;elbow=vertical;rounded=0;" parent="1" source="_RkswcxPKLXW6ceY8JrJ-14" target="38" edge="1">
                    <mxGeometry relative="1" as="geometry"/>
                </mxCell>
                <mxCell id="_RkswcxPKLXW6ceY8JrJ-14" value="\(mgL\)" style="rounded=0;whiteSpace=wrap;html=1;" parent="1" vertex="1">
                    <mxGeometry x="468" y="408" width="54" height="36" as="geometry"/>
                </mxCell>
                <mxCell id="32" value="" style="edgeStyle=none;html=1;rounded=0;" parent="1" source="_RkswcxPKLXW6ceY8JrJ-20" edge="1">
                    <mxGeometry relative="1" as="geometry">
                        <mxPoint x="894" y="291" as="targetPoint"/>
                    </mxGeometry>
                </mxCell>
                <mxCell id="_RkswcxPKLXW6ceY8JrJ-20" value="\(\dfrac{180}{\pi}\)" style="rounded=0;whiteSpace=wrap;html=1;" parent="1" vertex="1">
                    <mxGeometry x="807" y="267" width="48" height="48" as="geometry"/>
                </mxCell>
                <mxCell id="_RkswcxPKLXW6ceY8JrJ-37" value="\(x_1\)" style="text;html=1;align=center;verticalAlign=middle;resizable=0;points=[];autosize=1;rounded=0;" parent="1" vertex="1">
                    <mxGeometry x="603" y="267" width="46" height="20" as="geometry"/>
                </mxCell>
                <mxCell id="_RkswcxPKLXW6ceY8JrJ-40" value="\(\theta\)" style="text;html=1;align=center;verticalAlign=middle;resizable=0;points=[];autosize=1;rounded=0;" parent="1" vertex="1">
                    <mxGeometry x="843" y="258" width="63" height="27" as="geometry"/>
                </mxCell>
                <mxCell id="30" value="" style="edgeStyle=none;html=1;rounded=0;exitX=1;exitY=0.5;exitDx=0;exitDy=0;" parent="1" source="56" edge="1">
                    <mxGeometry relative="1" as="geometry">
                        <mxPoint x="333" y="291" as="sourcePoint"/>
                        <mxPoint x="396" y="294" as="targetPoint"/>
                        <Array as="points"/>
                    </mxGeometry>
                </mxCell>
                <mxCell id="_RkswcxPKLXW6ceY8JrJ-41" value="\(V\)" style="text;html=1;align=center;verticalAlign=middle;resizable=0;points=[];autosize=1;rounded=0;" parent="1" vertex="1">
                    <mxGeometry x="219" y="270" width="42" height="27" as="geometry"/>
                </mxCell>
                <mxCell id="_RkswcxPKLXW6ceY8JrJ-42" value="\(\dot{x}_1\)" style="text;html=1;align=center;verticalAlign=middle;resizable=0;points=[];autosize=1;rounded=0;" parent="1" vertex="1">
                    <mxGeometry x="522" y="270" width="74" height="20" as="geometry"/>
                </mxCell>
                <mxCell id="29" value="" style="edgeStyle=none;html=1;exitX=1;exitY=0.5;exitDx=0;exitDy=0;entryX=-0.004;entryY=0.456;entryDx=0;entryDy=0;entryPerimeter=0;rounded=0;" parent="1" source="24" target="_RkswcxPKLXW6ceY8JrJ-20" edge="1">
                    <mxGeometry relative="1" as="geometry">
                        <mxPoint x="795" y="291" as="targetPoint"/>
                    </mxGeometry>
                </mxCell>
                <mxCell id="49" style="edgeStyle=orthogonalEdgeStyle;html=1;entryX=1;entryY=0.5;entryDx=0;entryDy=0;elbow=vertical;rounded=0;" parent="1" target="_RkswcxPKLXW6ceY8JrJ-4" edge="1">
                    <mxGeometry relative="1" as="geometry">
                        <mxPoint x="672" y="291" as="sourcePoint"/>
                        <Array as="points">
                            <mxPoint x="672" y="366"/>
                        </Array>
                    </mxGeometry>
                </mxCell>
                <mxCell id="24" value="\(\dfrac{1}{s}\)" style="rounded=0;whiteSpace=wrap;html=1;" parent="1" vertex="1">
                    <mxGeometry x="717" y="267" width="30" height="45" as="geometry"/>
                </mxCell>
                <mxCell id="36" value="" style="edgeStyle=none;html=1;rounded=0;" parent="1" source="35" target="_RkswcxPKLXW6ceY8JrJ-14" edge="1">
                    <mxGeometry relative="1" as="geometry"/>
                </mxCell>
                <mxCell id="35" value="sen" style="rounded=0;whiteSpace=wrap;html=1;" parent="1" vertex="1">
                    <mxGeometry x="570" y="411" width="36" height="30" as="geometry"/>
                </mxCell>
                <mxCell id="38" value="" style="shape=sumEllipse;perimeter=ellipsePerimeter;whiteSpace=wrap;html=1;backgroundOutline=1;rounded=0;" parent="1" vertex="1">
                    <mxGeometry x="396" y="357" width="20" height="20" as="geometry"/>
                </mxCell>
                <mxCell id="44" value="" style="endArrow=classic;html=1;entryX=1;entryY=0.5;entryDx=0;entryDy=0;edgeStyle=orthogonalEdgeStyle;elbow=vertical;rounded=0;" parent="1" target="35" edge="1">
                    <mxGeometry width="50" height="50" relative="1" as="geometry">
                        <mxPoint x="777" y="291" as="sourcePoint"/>
                        <mxPoint x="785" y="366" as="targetPoint"/>
                        <Array as="points">
                            <mxPoint x="777" y="426"/>
                        </Array>
                    </mxGeometry>
                </mxCell>
                <mxCell id="45" value="\(\dot{x}_2\)" style="text;html=1;align=center;verticalAlign=middle;resizable=0;points=[];autosize=1;rounded=0;" parent="1" vertex="1">
                    <mxGeometry x="654" y="264" width="81" height="27" as="geometry"/>
                </mxCell>
                <mxCell id="53" value="" style="edgeStyle=orthogonalEdgeStyle;rounded=0;orthogonalLoop=1;jettySize=auto;html=1;endArrow=none;entryX=0;entryY=0.5;entryDx=0;entryDy=0;" parent="1" source="_RkswcxPKLXW6ceY8JrJ-2" target="52" edge="1">
                    <mxGeometry relative="1" as="geometry">
                        <mxPoint x="417" y="289" as="sourcePoint"/>
                        <mxPoint x="580" y="289.52" as="targetPoint"/>
                        <Array as="points">
                            <mxPoint x="417" y="291"/>
                            <mxPoint x="417" y="291"/>
                        </Array>
                    </mxGeometry>
                </mxCell>
                <mxCell id="52" value="\(J\)" style="rounded=0;whiteSpace=wrap;html=1;" parent="1" vertex="1">
                    <mxGeometry x="468" y="273" width="48" height="36" as="geometry"/>
                </mxCell>
                <mxCell id="56" value="\(K_m\)" style="rounded=0;whiteSpace=wrap;html=1;" parent="1" vertex="1">
                    <mxGeometry x="303" y="279" width="36" height="30" as="geometry"/>
                </mxCell>
                <mxCell id="57" value="" style="endArrow=classic;html=1;rounded=0;elbow=vertical;entryX=0;entryY=0.5;entryDx=0;entryDy=0;" parent="1" target="56" edge="1">
                    <mxGeometry width="50" height="50" relative="1" as="geometry">
                        <mxPoint x="234" y="294" as="sourcePoint"/>
                        <mxPoint x="278" y="288" as="targetPoint"/>
                    </mxGeometry>
                </mxCell>
                <mxCell id="58" value="\(x_2\)" style="text;html=1;align=center;verticalAlign=middle;resizable=0;points=[];autosize=1;rounded=0;" parent="1" vertex="1">
                    <mxGeometry x="734" y="264" width="54" height="27" as="geometry"/>
                </mxCell>
                <mxCell id="59" value="&lt;font style=&quot;font-size: 8px;&quot;&gt;\(-\)&lt;/font&gt;" style="text;html=1;align=center;verticalAlign=middle;resizable=0;points=[];autosize=1;rounded=0;" parent="1" vertex="1">
                    <mxGeometry x="378" y="288" width="30" height="27" as="geometry"/>
                </mxCell>
                <mxCell id="60" value="&lt;font style=&quot;font-size: 8px;&quot;&gt;\(+\)&lt;/font&gt;" style="text;html=1;align=center;verticalAlign=middle;resizable=0;points=[];autosize=1;rounded=0;" parent="1" vertex="1">
                    <mxGeometry x="374" y="267" width="33" height="27" as="geometry"/>
                </mxCell>
                <mxCell id="61" value="&lt;font style=&quot;font-size: 8px;&quot;&gt;\(+\)&lt;/font&gt;" style="text;html=1;align=center;verticalAlign=middle;resizable=0;points=[];autosize=1;rounded=0;" parent="1" vertex="1">
                    <mxGeometry x="402" y="342" width="33" height="27" as="geometry"/>
                </mxCell>
                <mxCell id="62" value="&lt;font style=&quot;font-size: 8px;&quot;&gt;\(+\)&lt;/font&gt;" style="text;html=1;align=center;verticalAlign=middle;resizable=0;points=[];autosize=1;rounded=0;" parent="1" vertex="1">
                    <mxGeometry x="378" y="366" width="33" height="27" as="geometry"/>
                </mxCell>
            </root>
        </mxGraphModel>
    </diagram>
</mxfile>